HIERARCHY
ROOT Hips
{
	OFFSET -3.958830 18.904000 13.208200
	CHANNELS 6 Xposition Yposition Zposition Zrotation Yrotation Xrotation 
	JOINT LHipJoint
	{
		OFFSET 0.000000 0.000000 0.000000
		CHANNELS 3 Zrotation Yrotation Xrotation
		JOINT LeftUpLeg
		{
			OFFSET 1.800000 -1.400000 0.085000
			CHANNELS 3 Zrotation Yrotation Xrotation
			JOINT LeftLeg
			{
				OFFSET 2.215000 -6.000000 0.000000
				CHANNELS 3 Zrotation Yrotation Xrotation
				JOINT LeftFoot
				{
					OFFSET 2.500000 -6.900000 0.000000
					CHANNELS 3 Zrotation Yrotation Xrotation
					JOINT LeftToeBase
					{
						OFFSET 0.200000 -0.500000 1.950000
						CHANNELS 3 Zrotation Yrotation Xrotation
						End Site
						{
							OFFSET 0.000000 0.000000 0.000000
						}
					}
				}
			}
		}
	}
	JOINT RHipJoint
	{
		OFFSET 0.000000 0.000000 0.000000
		CHANNELS 3 Zrotation Yrotation Xrotation
		JOINT RightUpLeg
		{
			OFFSET -1.800000 -1.400000 0.085000
			CHANNELS 3 Zrotation Yrotation Xrotation
			JOINT RightLeg
			{
				OFFSET -2.215000 -6.000000 0.000000
				CHANNELS 3 Zrotation Yrotation Xrotation
				JOINT RightFoot
				{
					OFFSET -2.500000 -6.900000 0.000000
					CHANNELS 3 Zrotation Yrotation Xrotation
					JOINT RightToeBase
					{
						OFFSET -0.200000 -0.500000 1.950000
						CHANNELS 3 Zrotation Yrotation Xrotation
						End Site
						{
							OFFSET 0.000000 0.000000 0.000000
						}
					}
				}
			}
		}
	}
	JOINT LowerBack
	{
		OFFSET 0.000000 0.000000 0.000000
		CHANNELS 3 Zrotation Yrotation Xrotation
		JOINT Spine
		{
			OFFSET -0.087000 1.940000 -0.288900
			CHANNELS 3 Zrotation Yrotation Xrotation
			JOINT Spine1
			{
				OFFSET 0.000000 1.950000 0.060000
				CHANNELS 3 Zrotation Yrotation Xrotation
				JOINT Neck
				{
					OFFSET 0.000000 0.000000 0.000000
					CHANNELS 3 Zrotation Yrotation Xrotation
					JOINT Neck1
					{
						OFFSET 0.000000 1.600000 0.340000
						CHANNELS 3 Zrotation Yrotation Xrotation
						JOINT Head
						{
							OFFSET 0.000000 1.667000 -0.240000
							CHANNELS 3 Zrotation Yrotation Xrotation
							End Site
							{
								OFFSET 0.000000 0.000000 0.000000
							}
						}
					}
				}
				JOINT LeftShoulder
				{
					OFFSET 0.000000 0.000000 0.000000
					CHANNELS 3 Zrotation Yrotation Xrotation
					JOINT LeftArm
					{
						OFFSET 2.700000 1.550000 -0.730000
						CHANNELS 3 Zrotation Yrotation Xrotation
						JOINT LeftForeArm
						{
							OFFSET 5.450000 0.000000 0.000000
							CHANNELS 3 Zrotation Yrotation Xrotation
							JOINT LeftHand
							{
								OFFSET 3.450000 0.000000 0.000000
								CHANNELS 3 Zrotation Yrotation Xrotation
								JOINT LeftHandIndex1
								{
									OFFSET 0.750000 0.000000 0.000000
									CHANNELS 3 Zrotation Yrotation Xrotation
									End Site
									{
										OFFSET 0.000000 0.000000 0.000000
									}
								}
							}
						}
					}
				}
				JOINT RightShoulder
				{
					OFFSET 0.000000 0.000000 0.000000
					CHANNELS 3 Zrotation Yrotation Xrotation
					JOINT RightArm
					{
						OFFSET -2.700000 1.550000 -0.730000
						CHANNELS 3 Zrotation Yrotation Xrotation
						JOINT RightForeArm
						{
							OFFSET -5.450000 0.000000 0.000000
							CHANNELS 3 Zrotation Yrotation Xrotation
							JOINT RightHand
							{
								OFFSET -3.450000 0.000000 0.000000
								CHANNELS 3 Zrotation Yrotation Xrotation
								JOINT RightHandIndex1
								{
									OFFSET -0.750000 0.000000 0.000000
									CHANNELS 3 Zrotation Yrotation Xrotation
									End Site
									{
										OFFSET 0.000000 0.000000 0.000000
									}
								}
							}
						}
					}
				}
			}
		}
	}
}
MOTION
Frames: 12
Frame Time: 0.016667
-14.094020 16.513130 18.392680 -4.720847 -28.576831 4.661169 -15.001526 12.362071 3.302582 -4.154761 -1.257920 -10.142767 -8.947874 4.046595 1.506852 0.113102 2.872914 3.562922 -0.039620 -0.068860 -0.012320 18.499341 -11.186501 2.869268 -2.046248 0.977975 -5.747082 17.616110 -14.301085 34.674415 -0.937918 -7.178903 1.867926 -0.095700 0.019780 0.023380 -3.992028 0.117771 -7.374767 8.082448 0.904432 3.151396 0.093205 0.353608 4.061504 1.875117 5.317159 -10.385641 8.327848 -6.198216 42.684257 3.641150 -4.825350 3.391670 -23.710910 -11.524054 6.682174 -55.798080 -1.153454 -5.820696 -15.965347 -21.881746 1.420004 -3.621535 3.106142 0.040600 -0.017770 0.023050 0.004960 20.223949 9.001204 5.206777 55.844972 2.143566 -5.225138 10.819329 15.474144 0.294450 2.737886 -1.258846 0.017230 -0.032640 -0.001540 0.031660 
-14.098450 16.512970 18.384600 -4.554168 -28.404477 4.599884 -15.013609 12.348312 3.308836 -4.599746 -1.227956 -9.923285 -8.144422 3.854688 0.988387 0.101267 2.811708 3.594428 -0.043490 -0.076700 -0.008110 18.494508 -11.184223 2.864523 -1.948501 0.971089 -5.815523 17.547384 -14.284457 34.744178 -0.932283 -7.182726 1.869650 -0.095670 0.023040 0.017570 -3.968336 0.137480 -7.368048 7.777101 0.971244 3.053407 0.025116 0.422942 4.003785 1.942513 5.447107 -10.361909 8.543037 -6.537008 42.609513 3.188340 -4.950720 3.765490 -23.997681 -11.571930 6.630664 -55.499892 -1.250830 -5.702596 -15.539502 -21.522848 1.343564 -3.623657 3.095185 0.037560 -0.012760 0.016910 0.006940 20.395064 9.000216 5.240498 55.863074 1.965583 -5.154541 9.544356 14.868489 0.163641 2.745580 -1.254790 0.008410 -0.029280 -0.006760 0.029800 
-14.098060 16.513240 18.378320 -4.698185 -28.173484 4.711858 -15.012367 12.328460 3.311730 -4.355048 -1.226536 -9.926680 -8.785819 3.936557 0.882556 0.123323 2.858598 3.577706 -0.048940 -0.080420 -0.020530 18.499809 -11.180212 2.859670 -1.741215 0.897472 -5.828208 17.486732 -14.182820 34.494511 -0.920319 -7.136370 1.886511 -0.101040 0.027930 0.016920 -3.981007 0.159219 -7.363410 7.851499 1.055562 2.941596 0.206575 0.474323 4.075727 1.855911 5.623733 -10.455688 8.862036 -6.738134 42.681304 3.703490 -5.347250 4.103270 -23.555878 -11.755554 6.625605 -55.962106 -1.748182 -5.461339 -15.410674 -20.812232 1.268611 -3.629685 3.100144 0.030060 -0.012820 0.012120 0.009030 20.119400 8.989717 5.364288 56.149284 1.589851 -5.324156 9.654099 14.860818 0.159045 2.748796 -1.258901 0.013200 -0.034300 -0.004830 0.037150 
-14.086930 16.512920 18.376230 -4.712377 -27.911900 4.596216 -15.011153 12.333471 3.318345 -4.412571 -1.200434 -9.744813 -8.661747 3.904462 0.800821 0.109820 2.837585 3.567165 -0.014300 -0.041660 0.020190 18.498942 -11.182585 2.861970 -1.820315 0.852692 -5.730197 17.603604 -14.292867 34.545967 -0.951928 -7.143508 1.872814 -0.084000 -0.014730 0.019920 -3.978598 0.155451 -7.380130 7.945722 0.919163 3.086776 0.014948 0.354033 4.002357 2.043938 5.892304 -10.474883 9.481104 -6.969062 43.430791 3.555020 -5.021210 3.013650 -23.706579 -11.707235 6.616369 -55.824950 -1.732472 -5.479798 -15.294725 -20.936303 1.257626 -3.605240 3.091929 0.059080 -0.038240 0.047860 0.001580 19.914579 8.741936 5.259652 56.571216 1.807288 -5.293972 9.503050 14.893462 0.163501 2.748076 -1.246783 0.023900 -0.038120 -0.021250 0.021300 
-14.087710 16.503370 18.376430 -4.832841 -28.177500 4.752922 -15.008753 12.319508 3.313199 -4.302163 -1.227930 -9.903635 -8.944445 3.946512 0.808445 0.101726 2.872190 3.565692 -0.033230 -0.064690 0.016340 18.505971 -11.171467 2.863010 -1.671121 0.876177 -5.783760 17.637612 -14.316648 34.581147 -0.945765 -7.156343 1.876753 -0.089580 0.004240 0.018320 -4.000354 0.162995 -7.363496 8.169073 0.859098 3.005646 -0.084586 0.275482 3.948254 2.127738 5.999886 -10.332715 9.747045 -6.695686 42.491066 3.139270 -4.359100 3.072150 -23.721643 -11.411168 6.579690 -56.124804 -1.468599 -5.704964 -14.857284 -21.360625 1.206697 -3.626858 3.071874 0.056270 -0.019480 0.035100 -0.002290 19.730138 8.306327 5.079222 57.193931 1.834608 -5.542024 8.901252 15.509972 0.106994 2.733974 -1.239750 0.006430 -0.026440 -0.011160 0.014530 
-14.093430 16.506380 18.355440 -5.042737 -28.720512 4.987340 -15.003528 12.320644 3.301300 -4.086572 -1.304840 -10.403291 -8.973319 3.972771 1.108071 0.085835 2.858257 3.572559 -0.046280 -0.081030 0.010470 18.506862 -11.175430 2.888309 -1.284711 1.093084 -6.192167 17.334483 -14.196965 35.017800 -0.935332 -7.158566 1.876339 -0.093700 0.013900 0.014220 -4.002527 0.193975 -7.376819 8.236626 1.078066 3.235444 0.221733 0.498050 3.796372 2.081574 5.902094 -10.275261 9.567577 -6.639928 42.198878 2.880670 -4.263870 3.260320 -23.931416 -11.338779 6.542387 -56.519290 -1.349135 -5.903196 -14.141217 -21.586303 1.085456 -3.637764 3.058114 0.052750 -0.011650 0.023970 -0.006800 20.037155 8.432668 5.015149 56.890258 1.961291 -5.420736 8.762302 15.039201 0.085413 2.736462 -1.236371 -0.003610 -0.021400 -0.002800 0.011940 
-14.092160 16.502740 18.348470 -5.016736 -29.135838 4.967808 -15.008537 12.290017 3.292307 -4.163792 -1.306615 -10.398092 -8.976824 3.966939 1.097854 0.075292 2.852181 3.575531 -0.040340 -0.071450 0.021690 18.508113 -11.185477 2.882710 -1.262880 1.234254 -6.314743 17.125190 -14.200398 35.490699 -0.949310 -7.190826 1.867480 -0.085870 0.009410 0.007540 -4.004101 0.271313 -7.344150 8.045940 1.363872 3.175918 0.438489 0.761346 3.744822 2.099847 6.012941 -10.019910 9.825716 -6.801022 42.088958 2.905440 -4.199440 2.631510 -23.709613 -10.604773 6.274302 -57.928853 -1.646797 -6.066861 -12.461022 -21.888140 0.812026 -3.640212 3.017535 0.065950 -0.017430 0.034540 -0.006410 19.854528 7.706391 4.724263 58.055699 2.022259 -5.748104 7.725679 15.683790 -0.014333 2.726707 -1.219431 -0.011270 -0.005140 -0.007400 0.007120 
-14.091180 16.499970 18.350830 -4.933161 -29.101619 4.995710 -15.019414 12.298865 3.323405 -4.264327 -1.317213 -10.343842 -9.234523 3.950758 0.717791 0.082772 2.877982 3.570718 -0.050750 -0.088340 0.019900 18.497542 -11.170567 2.858258 -1.402062 1.147607 -6.280280 16.962695 -14.110554 35.313715 -0.931968 -7.150690 1.881673 -0.095150 0.012230 0.007360 -3.970897 0.204553 -7.356277 7.910034 1.180364 3.155789 0.412568 0.590067 3.628808 2.089641 5.945405 -10.054972 9.630074 -6.752729 41.988717 2.619950 -4.124640 2.922100 -23.588075 -10.453006 6.257792 -57.424202 -1.173868 -6.093340 -13.789423 -21.344414 0.980735 -3.646176 3.021888 0.064940 -0.013530 0.028240 -0.010860 19.739742 7.529631 4.798083 57.831349 1.459266 -6.067820 8.227905 16.103310 0.028853 2.723208 -1.218925 -0.015330 -0.008010 -0.002370 0.003950 
-14.086430 16.506980 18.333380 -5.054204 -28.962669 5.055778 -15.008478 12.289375 3.317683 -3.923753 -1.346351 -10.526460 -9.527947 3.986206 0.762646 0.084458 2.895304 3.554448 -0.048920 -0.091820 0.013390 18.507442 -11.182114 2.866332 -0.988087 1.236249 -6.531666 16.484830 -13.884714 35.524861 -0.924700 -7.099182 1.889003 -0.100620 0.007620 0.014340 -3.999818 0.253575 -7.355089 8.000678 1.059554 3.219794 0.511685 0.490513 3.376662 1.994053 5.760082 -9.815824 9.351445 -6.833695 42.317632 3.195180 -4.704260 2.688330 -23.635308 -9.782832 6.069855 -58.792932 -1.170784 -6.269764 -12.738875 -21.379569 0.766199 -3.647452 3.017247 0.071310 -0.024870 0.030710 -0.015950 20.001912 7.093746 4.448146 58.260922 1.894613 -5.950602 7.529085 15.765436 -0.019611 2.730303 -1.210937 -0.006070 -0.014590 0.008600 0.005980 
-14.084190 16.500490 18.321530 -4.924866 -28.774444 5.055838 -15.000067 12.263171 3.303675 -4.231542 -1.399021 -10.779558 -9.153902 3.942709 0.958605 0.071636 2.844873 3.581224 -0.053100 -0.095140 0.012250 18.520215 -11.186993 2.879723 -1.011557 1.208107 -6.590631 16.954444 -14.151276 35.581398 -0.934773 -7.179124 1.868682 -0.097190 0.017030 0.011570 -4.038779 0.309530 -7.338572 8.127166 1.054860 3.192458 0.093087 0.523864 3.230518 2.097840 5.890102 -9.568465 9.564574 -7.116788 41.434999 2.597000 -4.689180 2.938300 -24.188977 -9.488978 5.949496 -58.409403 -0.894150 -6.606114 -11.589727 -22.117840 0.648056 -3.649631 3.014477 0.057740 -0.011570 0.019560 -0.010430 20.305052 6.714857 4.215471 58.865213 1.851219 -5.856968 7.117142 14.895476 -0.100511 2.740671 -1.218421 -0.012720 -0.013310 0.002320 0.008020 
-14.079010 16.498980 18.315660 -4.855440 -29.204612 4.978809 -15.004880 12.271925 3.310184 -4.389988 -1.407214 -10.775253 -8.929170 3.896396 0.899837 0.070340 2.820197 3.587336 -0.045190 -0.084330 0.015700 18.512901 -11.179198 2.878869 -1.337895 1.220765 -6.679010 17.286637 -14.270132 35.435224 -0.938670 -7.196011 1.859304 -0.091880 0.015970 0.015410 -4.023331 0.277178 -7.346158 8.091817 1.094846 3.329011 0.015749 0.573089 3.152549 2.167946 6.073888 -9.527858 9.947484 -6.867620 41.364239 2.914540 -4.355400 2.915540 -24.451963 -9.458847 5.878600 -57.329361 -0.833614 -6.424528 -12.837810 -21.966724 0.869202 -3.649170 3.036934 0.054770 -0.010080 0.021070 -0.008270 20.441472 6.503086 4.190357 58.291240 1.599239 -5.909256 7.077841 15.019763 -0.106621 2.738914 -1.224830 -0.008170 -0.019560 -0.002210 0.008250 
-14.063580 16.502210 18.309500 -4.728629 -29.271218 4.839730 -14.988367 12.254679 3.316395 -4.342461 -1.431717 -10.859028 -9.373899 3.981268 1.087060 0.091767 2.835561 3.576731 -0.040120 -0.077260 0.018010 18.522160 -11.180804 2.889600 -2.027501 1.378353 -7.066852 17.975570 -14.727315 35.824380 -0.970823 -7.318297 1.816236 -0.097590 0.005090 0.018210 -4.071907 0.307137 -7.366419 8.390664 1.055677 3.383748 -0.258976 0.584481 2.967768 2.168886 5.928246 -9.482191 9.691178 -6.821547 41.867398 3.043400 -4.445490 2.940600 -24.665798 -9.285586 5.879009 -58.218870 -0.603194 -6.808346 -11.120921 -22.244768 0.579125 -3.636539 3.028024 0.056780 -0.019650 0.032550 -0.006310 20.605233 6.466406 4.098257 59.284328 1.588916 -6.089851 6.188670 14.794845 -0.189691 2.748880 -1.219439 0.004520 -0.026440 -0.008300 0.012320 
